<svg width="18" height="18" viewBox="0 0 18 18" fill="none" xmlns="http://www.w3.org/2000/svg">
<path fill-rule="evenodd" clip-rule="evenodd" d="M11.8451 0.75C12.1556 0.75 12.4076 1.002 12.4076 1.3125L12.408 1.94836C13.503 2.02344 14.4125 2.39854 15.0563 3.04358C15.759 3.74933 16.1288 4.76407 16.125 5.98133V12.8236C16.125 15.3226 14.538 16.8751 11.9843 16.8751H5.64075C3.087 16.8751 1.5 15.3008 1.5 12.7666V5.97983C1.5 3.62272 2.91529 2.1097 5.22351 1.94862L5.22398 1.3125C5.22398 1.002 5.47598 0.75 5.78648 0.75C6.09697 0.75 6.34898 1.002 6.34898 1.3125L6.34875 1.93425H11.2823L11.2826 1.3125C11.2826 1.002 11.5346 0.75 11.8451 0.75ZM15 7.428H2.625V12.7666C2.625 14.6911 3.696 15.7501 5.64075 15.7501H11.9843C13.929 15.7501 15 14.7106 15 12.8236L15 7.428ZM12.1509 12.1472C12.4614 12.1472 12.7134 12.3992 12.7134 12.7097C12.7134 13.0202 12.4614 13.2722 12.1509 13.2722C11.8404 13.2722 11.5854 13.0202 11.5854 12.7097C11.5854 12.3992 11.8336 12.1472 12.1441 12.1472H12.1509ZM8.82277 12.1472C9.13327 12.1472 9.38527 12.3992 9.38527 12.7097C9.38527 13.0202 9.13327 13.2722 8.82277 13.2722C8.51227 13.2722 8.25727 13.0202 8.25727 12.7097C8.25727 12.3992 8.50552 12.1472 8.81602 12.1472H8.82277ZM5.48767 12.1472C5.79817 12.1472 6.05017 12.3992 6.05017 12.7097C6.05017 13.0202 5.79817 13.2722 5.48767 13.2722C5.17717 13.2722 4.92143 13.0202 4.92143 12.7097C4.92143 12.3992 5.17042 12.1472 5.48093 12.1472H5.48767ZM12.1509 9.2322C12.4614 9.2322 12.7134 9.4842 12.7134 9.7947C12.7134 10.1052 12.4614 10.3572 12.1509 10.3572C11.8404 10.3572 11.5854 10.1052 11.5854 9.7947C11.5854 9.4842 11.8336 9.2322 12.1441 9.2322H12.1509ZM8.82277 9.2322C9.13327 9.2322 9.38527 9.4842 9.38527 9.7947C9.38527 10.1052 9.13327 10.3572 8.82277 10.3572C8.51227 10.3572 8.25727 10.1052 8.25727 9.7947C8.25727 9.4842 8.50552 9.2322 8.81602 9.2322H8.82277ZM5.48767 9.2322C5.79817 9.2322 6.05017 9.4842 6.05017 9.7947C6.05017 10.1052 5.79817 10.3572 5.48767 10.3572C5.17717 10.3572 4.92143 10.1052 4.92143 9.7947C4.92143 9.4842 5.17042 9.2322 5.48093 9.2322H5.48767ZM11.2823 3.05925H6.34875L6.34898 3.78075C6.34898 4.09125 6.09697 4.34325 5.78648 4.34325C5.47598 4.34325 5.22398 4.09125 5.22398 3.78075L5.22358 3.07628C3.5434 3.21742 2.625 4.23589 2.625 5.97983V6.303H15L15 5.97983C15.003 5.05358 14.754 4.33358 14.2598 3.83858C13.8259 3.40343 13.1916 3.14355 12.4083 3.07664L12.4076 3.78075C12.4076 4.09125 12.1556 4.34325 11.8451 4.34325C11.5346 4.34325 11.2826 4.09125 11.2826 3.78075L11.2823 3.05925Z" fill="#ABB0B6"/>
</svg>
