<svg width="16" height="17" viewBox="0 0 16 17" fill="none" xmlns="http://www.w3.org/2000/svg">
<path d="M14.0437 1.35693H1.95583C1.34893 1.35693 0.856934 1.84893 0.856934 2.45583V14.5437C0.856934 15.1507 1.34893 15.6426 1.95583 15.6426H14.0437C14.6507 15.6426 15.1426 15.1507 15.1426 14.5437V2.45583C15.1426 1.84893 14.6507 1.35693 14.0437 1.35693Z" stroke="white" stroke-linecap="round" stroke-linejoin="round"/>
<path d="M3.604 5.75244H9.09851" stroke="white" stroke-linecap="round" stroke-linejoin="round"/>
<path d="M10.747 7.40071C11.6573 7.40071 12.3953 6.66272 12.3953 5.75236C12.3953 4.842 11.6573 4.104 10.747 4.104C9.83662 4.104 9.09863 4.842 9.09863 5.75236C9.09863 6.66272 9.83662 7.40071 10.747 7.40071Z" stroke="white" stroke-linecap="round" stroke-linejoin="round"/>
<path d="M12.3952 11.2471H9.09851M5.80181 11.2471H3.604" stroke="white" stroke-linecap="round" stroke-linejoin="round"/>
<path d="M7.45011 12.8953C8.36047 12.8953 9.09846 12.1573 9.09846 11.247C9.09846 10.3366 8.36047 9.59863 7.45011 9.59863C6.53975 9.59863 5.80176 10.3366 5.80176 11.247C5.80176 12.1573 6.53975 12.8953 7.45011 12.8953Z" stroke="white" stroke-linecap="round" stroke-linejoin="round"/>
</svg>
