<svg width="20" height="19" viewBox="0 0 20 19" fill="none" xmlns="http://www.w3.org/2000/svg">
<path d="M6.1215 10.0228C6.15545 10.1299 6.09458 10.2448 5.98446 10.2778C5.87526 10.3111 5.75811 10.2514 5.72446 10.1434C5.61098 9.78542 5.52839 9.40675 5.48587 9.03168C5.47364 8.91946 5.55622 8.81894 5.66971 8.80634C5.78411 8.79434 5.88719 8.87535 5.89942 8.98667C5.93919 9.33984 6.01382 9.6861 6.1215 10.0228ZM5.86822 8.12012C5.86394 8.23234 5.76759 8.31995 5.65319 8.31575C5.53879 8.31155 5.44947 8.21614 5.45375 8.10392C5.48159 7.4225 5.62902 6.75668 5.88474 6.13137C5.92726 6.02665 6.0487 5.97564 6.15514 6.01735C6.26098 6.05995 6.31298 6.17817 6.27046 6.28259C6.03218 6.8647 5.89606 7.48731 5.86822 8.12012ZM6.54973 5.70049C6.49437 5.79921 6.36865 5.83581 6.26801 5.7821C6.16738 5.72839 6.13006 5.60507 6.18481 5.50576C7.24623 3.59202 9.28983 2.375 11.5476 2.375C15.1824 2.375 18.0099 5.47185 17.6092 9.02628C17.5961 9.1385 17.4939 9.21921 17.3795 9.20661C17.266 9.19461 17.1835 9.09349 17.1957 8.98217C17.5686 5.67258 14.938 2.78427 11.5476 2.78427C9.44155 2.78397 7.53896 3.91427 6.54973 5.70049ZM17.0553 9.73711C17.084 9.62729 17.1975 9.56097 17.3086 9.58918C17.4205 9.61738 17.4872 9.7278 17.4594 9.83762C17.3762 10.1584 17.2712 10.456 17.1351 10.7612C17.0892 10.8641 16.9669 10.9109 16.8611 10.8665C16.7561 10.8215 16.7084 10.7015 16.7537 10.5977C16.8773 10.3222 16.9788 10.033 17.0553 9.73711ZM2.6592 12.4733L3.80198 11.9647C4.06198 11.8492 4.37246 11.9884 4.46606 12.235L4.47921 12.2675C4.89705 12.0217 5.46782 11.5911 5.84651 11.2809C6.45521 10.7825 6.86877 10.5433 7.31016 10.4524C6.38853 8.65872 6.74642 6.48633 8.19294 5.06768C10.046 3.25086 13.0494 3.25086 14.9016 5.06768C16.7121 6.84369 16.7598 9.7065 15.0098 11.5386L15.0897 11.5071C15.5537 11.3217 16.0046 11.3556 16.293 11.502C16.5246 11.6184 16.691 11.8288 16.6579 12.0856C16.6338 12.2813 16.4906 12.4853 16.1906 12.6605C16.0355 12.7514 15.7161 12.9438 15.3469 13.1667C13.9457 14.0123 11.7626 15.3304 10.97 15.5023C10.9578 15.5047 10.9459 15.5065 10.9346 15.5074C10.4222 15.5296 8.91604 15.3841 7.80875 15.2779C7.17924 15.2167 6.68157 15.169 6.59653 15.1726C6.40841 15.1795 6.00342 15.3061 5.77615 15.3817L5.79787 15.4336C5.90279 15.6863 5.77799 15.9644 5.529 16.0748L4.38622 16.5834C4.1253 16.6998 3.813 16.5612 3.71603 16.2993L2.39033 13.1145C2.28542 12.8619 2.41022 12.5846 2.6592 12.4733ZM3.97267 12.3365C3.9745 12.3356 3.98062 12.3341 3.97267 12.3374L2.82989 12.846C2.78492 12.8664 2.75617 12.9174 2.77452 12.9618L4.10022 16.1453C4.11337 16.1741 4.12286 16.1964 4.15742 16.2108C4.17914 16.2201 4.19657 16.2201 4.21554 16.2117L5.35832 15.7031C5.4042 15.6827 5.43204 15.6317 5.41368 15.5866L4.18342 12.6317L4.07942 12.3842C4.06137 12.3449 4.01366 12.3194 3.97267 12.3365ZM3.97267 12.3365C3.97206 12.3365 3.97206 12.3365 3.97267 12.3365V12.3365ZM8.29847 10.4329C8.44407 10.4473 8.60098 10.4662 8.77289 10.4872C8.71477 10.4131 8.65849 10.3375 8.60557 10.2592L8.29847 10.4329ZM9.4076 10.5665C9.62263 10.5929 9.86031 10.6202 10.1255 10.6457C10.6146 10.6943 10.9336 10.9664 10.9398 11.3475C12.8509 11.7202 14.6526 10.2859 14.6526 8.35866C14.6526 6.67626 13.2626 5.31192 11.5476 5.31192C9.83247 5.31192 8.44162 6.67626 8.44162 8.35866C8.44162 9.20391 8.79369 9.99485 9.4076 10.5665ZM10.826 11.7403C10.6421 12.037 10.2745 12.2414 9.76732 12.2293L10.8382 12.5099C10.9034 12.527 11.1 12.5456 11.3386 12.5609V11.8072C11.1677 11.797 10.9936 11.7742 10.826 11.7403ZM11.7556 12.5804L11.9522 12.5846C12.248 12.5573 12.5359 12.5012 12.8115 12.4187L13.5285 12.1321L13.1253 11.4474C12.709 11.6523 12.2453 11.7793 11.7553 11.8072V12.5804H11.7556ZM5.18488 12.2963C4.98636 12.4349 4.79825 12.5573 4.63766 12.6485L5.61832 15.0027C5.90279 14.9082 6.32919 14.7747 6.58001 14.7645C6.6935 14.7603 7.20432 14.8095 7.84943 14.8716C8.93073 14.9754 10.3968 15.1174 10.8982 15.1006C11.6344 14.928 13.7603 13.6444 15.1294 12.8187C15.4381 12.6323 15.7042 12.4709 15.9792 12.311C16.2377 12.1594 16.3591 11.9938 16.1031 11.8645C15.9079 11.7658 15.5889 11.7481 15.2463 11.8858L13.7184 12.4973C13.4722 12.6215 13.2137 12.7253 12.9448 12.807L12.605 12.9432C12.5105 12.9807 12.2685 12.9942 11.9877 12.9924C11.843 13.0053 11.6956 13.0119 11.5472 13.0119C11.0514 13.0119 10.5736 12.9372 10.1237 12.7985C9.95635 12.7466 9.79332 12.6863 9.63456 12.6182L7.96628 12.1828V12.1819C7.73136 12.1216 7.77999 11.7763 8.02439 11.7823L9.79852 11.8231C10.3249 11.836 10.61 11.4804 10.5017 11.2575C10.4522 11.1564 10.3197 11.0747 10.0848 11.0516C9.65812 11.0099 9.33816 10.9691 8.94449 10.9199C7.59799 10.7489 7.20616 10.6988 6.11354 11.5935C5.82999 11.8261 5.49535 12.0802 5.18488 12.2963ZM9.60948 5.47335L9.20633 4.78773C8.68602 5.11689 8.24218 5.55166 7.90755 6.06175L8.60557 6.45722C8.86924 6.06625 9.21092 5.7311 9.60948 5.47335ZM9.56543 4.58459L9.96859 5.26931C10.3849 5.06438 10.8486 4.93745 11.3386 4.90955V4.11831C10.7021 4.14801 10.1013 4.31304 9.56543 4.58459ZM8.39818 6.80949L7.69924 6.41402C7.42272 6.93971 7.2554 7.52901 7.22482 8.15433H8.03112C8.06018 7.67274 8.18835 7.21786 8.39818 6.80949ZM8.03143 8.5624H7.22512C7.25388 9.17661 7.41508 9.76351 7.69955 10.3027L8.39849 9.90724C8.18774 9.49466 8.05927 9.03978 8.03143 8.5624ZM13.4853 11.2434L13.8885 11.929C14.4088 11.5998 14.8517 11.1651 15.1873 10.655L14.4883 10.2595C14.2259 10.6505 13.8842 10.9856 13.4853 11.2434ZM14.6966 9.90724L15.3946 10.3027C15.6712 9.77701 15.8394 9.18771 15.8697 8.5624H15.0634C15.0349 9.04398 14.9055 9.49886 14.6966 9.90724ZM15.0634 8.15433H15.8697C15.8394 7.52931 15.6712 6.93971 15.3946 6.41402L14.6966 6.80949C14.9055 7.21786 15.0349 7.67274 15.0634 8.15433ZM14.4886 6.45752L15.1876 6.06205C14.852 5.55166 14.4088 5.11719 13.8888 4.78803L13.4856 5.47365C13.8842 5.7311 14.2259 6.06625 14.4886 6.45752ZM13.1256 5.26931L13.5288 4.58369C12.9929 4.31334 12.3921 4.14831 11.7556 4.11831V4.90925C12.2456 4.93745 12.7093 5.06408 13.1256 5.26931ZM11.7556 9.96845V10.2517C11.7556 10.3648 11.662 10.4557 11.5476 10.4557C11.4322 10.4557 11.3386 10.3648 11.3386 10.2517V9.96845C10.8471 9.89943 10.3779 9.56368 10.3779 9.06859C10.3779 8.95547 10.4715 8.86455 10.5868 8.86455C10.7012 8.86455 10.7948 8.95547 10.7948 9.06859C10.7948 9.19701 10.8703 9.31793 10.9933 9.40795C11.4588 9.75241 12.2991 9.52527 12.2991 9.06859C12.2991 8.69772 11.9045 8.62811 11.5099 8.5591C10.9437 8.45888 10.3776 8.35926 10.3776 7.64814C10.3776 7.15305 10.8468 6.81729 11.3383 6.74828V6.46503C11.3383 6.35191 11.4319 6.26099 11.5472 6.26099C11.6617 6.26099 11.7553 6.35191 11.7553 6.46503V6.74828C12.3016 6.82479 12.716 7.19836 12.716 7.64814C12.716 7.76126 12.6224 7.85217 12.508 7.85217C12.3927 7.85217 12.2991 7.76126 12.2991 7.64814C12.2991 7.19145 11.4588 6.96431 10.9933 7.30877C10.87 7.39879 10.7948 7.51971 10.7948 7.64814C10.7948 8.019 11.1894 8.08861 11.584 8.15853C12.1501 8.25814 12.7163 8.35746 12.7163 9.06859C12.7163 9.51837 12.3019 9.89193 11.7556 9.96845Z" fill="white"/>
</svg>
