<svg width="24" height="23" viewBox="0 0 24 23" fill="none" xmlns="http://www.w3.org/2000/svg">
<path d="M7.3454 12.1328C7.38615 12.2625 7.3131 12.4016 7.18096 12.4415C7.04992 12.4819 6.90934 12.4096 6.86896 12.2788C6.73278 11.8455 6.63368 11.3871 6.58265 10.9331C6.56797 10.7972 6.66708 10.6756 6.80326 10.6603C6.94054 10.6458 7.06424 10.7438 7.07892 10.8786C7.12664 11.3061 7.2162 11.7253 7.3454 12.1328ZM7.04148 9.82962C7.03634 9.96546 6.92072 10.0715 6.78344 10.0664C6.64616 10.0614 6.53897 9.94585 6.54411 9.81C6.57752 8.98513 6.75444 8.17914 7.0613 7.42218C7.11232 7.29542 7.25804 7.23367 7.38578 7.28416C7.51278 7.33573 7.57518 7.47884 7.52416 7.60524C7.23822 8.3099 7.07488 9.06358 7.04148 9.82962ZM7.85929 6.90059C7.79285 7.02009 7.64199 7.06441 7.52123 6.99939C7.40046 6.93437 7.35568 6.78509 7.42139 6.66486C8.69508 4.34823 11.1474 2.875 13.8567 2.875C18.2184 2.875 21.6115 6.62382 21.1307 10.9265C21.1149 11.0624 20.9923 11.1601 20.855 11.1448C20.7189 11.1303 20.6198 11.0079 20.6344 10.8732C21.0819 6.86681 17.9252 3.37044 13.8567 3.37044C11.3295 3.37007 9.04636 4.73833 7.85929 6.90059ZM20.466 11.787C20.5005 11.6541 20.6366 11.5738 20.7699 11.608C20.9042 11.6421 20.9842 11.7758 20.9508 11.9087C20.851 12.297 20.7251 12.6573 20.5618 13.0267C20.5067 13.1513 20.3599 13.2079 20.2329 13.1542C20.107 13.0997 20.0497 12.9544 20.104 12.8287C20.2523 12.4953 20.3742 12.1452 20.466 11.787ZM3.19066 15.0992L4.56199 14.4836C4.87399 14.3437 5.24656 14.5123 5.35888 14.8108L5.37466 14.8501C5.87606 14.5526 6.561 14.0314 7.01542 13.6558C7.74587 13.0525 8.24213 12.763 8.7718 12.6529C7.66585 10.4816 8.09531 7.85187 9.83113 6.13456C12.0548 3.93525 15.6589 3.93525 17.8815 6.13456C20.0541 8.28447 20.1114 11.75 18.0114 13.9678L18.1072 13.9297C18.6641 13.7052 19.2051 13.7462 19.5512 13.9235C19.8291 14.0644 20.0288 14.319 19.9891 14.63C19.9601 14.8668 19.7884 15.1138 19.4283 15.3259C19.2422 15.436 18.859 15.6688 18.4159 15.9387C16.7344 16.9622 14.1147 18.5578 13.1637 18.766C13.149 18.7689 13.1347 18.7711 13.1211 18.7722C12.5063 18.799 10.6989 18.6229 9.37011 18.4943C8.6147 18.4202 8.01749 18.3624 7.91545 18.3668C7.68971 18.3751 7.20372 18.5284 6.93099 18.62L6.95706 18.6828C7.08296 18.9886 6.9332 19.3253 6.63441 19.459L5.26307 20.0747C4.94997 20.2156 4.5752 20.0478 4.45885 19.7307L2.86801 15.8755C2.74211 15.5696 2.89187 15.234 3.19066 15.0992ZM4.76681 14.9336C4.76901 14.9325 4.77635 14.9307 4.76681 14.9347L3.39547 15.5504C3.34152 15.5751 3.30701 15.6368 3.32904 15.6906L4.91987 19.5444C4.93566 19.5792 4.94704 19.6061 4.98851 19.6235C5.01458 19.6348 5.0355 19.6348 5.05826 19.6246L6.42959 19.009C6.48465 18.9843 6.51805 18.9225 6.49603 18.868L5.01971 15.291L4.89491 14.9914C4.87326 14.9438 4.816 14.9129 4.76681 14.9336ZM4.76681 14.9336C4.76608 14.9336 4.76608 14.9336 4.76681 14.9336V14.9336ZM9.95777 12.6293C10.1325 12.6468 10.3208 12.6697 10.5271 12.6951C10.4573 12.6054 10.3898 12.5138 10.3263 12.419L9.95777 12.6293ZM11.2887 12.791C11.5468 12.8229 11.832 12.856 12.1502 12.8869C12.7371 12.9457 13.12 13.2751 13.1273 13.7364C15.4207 14.1876 17.5827 12.4514 17.5827 10.1184C17.5827 8.08179 15.9148 6.43022 13.8567 6.43022C11.7986 6.43022 10.1296 8.08179 10.1296 10.1184C10.1296 11.1416 10.552 12.099 11.2887 12.791ZM12.9908 14.2119C12.7702 14.5711 12.329 14.8185 11.7204 14.8039L13.0055 15.1436C13.0836 15.1643 13.3197 15.1868 13.606 15.2053V14.2929C13.4008 14.2805 13.1919 14.2529 12.9908 14.2119ZM14.1063 15.2289L14.3423 15.234C14.6972 15.2009 15.0426 15.133 15.3734 15.0331L16.2338 14.6863L15.75 13.8574C15.2504 14.1055 14.6939 14.2591 14.1059 14.2929V15.2289H14.1063ZM6.22147 14.8849C5.98325 15.0528 5.7575 15.2009 5.5648 15.3114L6.74159 18.1612C7.08296 18.0468 7.59464 17.8852 7.89563 17.8728C8.03181 17.8677 8.6448 17.9273 9.41893 18.0025C10.7165 18.1282 12.4758 18.3 13.0774 18.2796C13.9609 18.0708 16.512 16.5169 18.1549 15.5173C18.5253 15.2918 18.8447 15.0963 19.1746 14.9027C19.4848 14.7193 19.6305 14.5188 19.3233 14.3623C19.0891 14.2428 18.7063 14.2213 18.2952 14.3881L16.4617 15.1283C16.1662 15.2787 15.8561 15.4044 15.5334 15.5032L15.1256 15.6681C15.0122 15.7135 14.7218 15.7298 14.3849 15.7276C14.2113 15.7432 14.0343 15.7512 13.8563 15.7512C13.2613 15.7512 12.688 15.6608 12.148 15.493C11.9472 15.4301 11.7516 15.3571 11.5611 15.2747L9.55914 14.7476V14.7466C9.27724 14.6736 9.3356 14.2555 9.62888 14.2627L11.7578 14.3121C12.3895 14.3278 12.7316 13.8973 12.6017 13.6275C12.5422 13.5051 12.3833 13.4063 12.1014 13.3783C11.5893 13.3278 11.2054 13.2784 10.733 13.2188C9.1172 13.0118 8.647 12.9512 7.33586 14.0343C6.9956 14.3158 6.59403 14.6234 6.22147 14.8849ZM11.531 6.62563L11.0472 5.79567C10.4228 6.19413 9.89023 6.72043 9.48867 7.33791L10.3263 7.81664C10.6427 7.34336 11.0527 6.93764 11.531 6.62563ZM11.4781 5.54977L11.9619 6.37864C12.4615 6.13056 13.0179 5.97692 13.606 5.94314V4.98532C12.8421 5.02128 12.1212 5.22105 11.4781 5.54977ZM10.0774 8.24306L9.2387 7.76434C8.90688 8.4007 8.7061 9.11407 8.66939 9.87103H9.63696C9.67183 9.28805 9.82563 8.73741 10.0774 8.24306ZM9.63733 10.365H8.66976C8.70426 11.1085 8.8977 11.819 9.23907 12.4717L10.0778 11.993C9.82489 11.4935 9.67073 10.9429 9.63733 10.365ZM16.182 13.6104L16.6658 14.4404C17.2902 14.0419 17.8217 13.5156 18.2243 12.8981L17.3856 12.4194C17.0707 12.8927 16.6606 13.2984 16.182 13.6104ZM17.6356 11.993L18.4732 12.4717C18.805 11.8353 19.0069 11.122 19.0432 10.365H18.0757C18.0415 10.948 17.8863 11.4986 17.6356 11.993ZM18.0757 9.87103H19.0432C19.0069 9.11443 18.805 8.4007 18.4732 7.76434L17.6356 8.24306C17.8863 8.73741 18.0415 9.28805 18.0757 9.87103ZM17.386 7.817L18.2247 7.33828C17.822 6.72043 17.2902 6.19449 16.6662 5.79603L16.1824 6.626C16.6606 6.93764 17.0707 7.34336 17.386 7.817ZM15.7503 6.37864L16.2341 5.54868C15.591 5.22142 14.8701 5.02164 14.1063 4.98532V5.94278C14.6943 5.97692 15.2508 6.1302 15.7503 6.37864ZM14.1063 12.0671V12.4099C14.1063 12.5469 13.994 12.6569 13.8567 12.6569C13.7183 12.6569 13.606 12.5469 13.606 12.4099V12.0671C13.0161 11.9835 12.453 11.5771 12.453 10.9778C12.453 10.8408 12.5654 10.7308 12.7037 10.7308C12.841 10.7308 12.9533 10.8408 12.9533 10.9778C12.9533 11.1332 13.044 11.2796 13.1916 11.3886C13.7502 11.8055 14.7585 11.5306 14.7585 10.9778C14.7585 10.5288 14.285 10.4446 13.8115 10.361C13.1321 10.2397 12.4527 10.1191 12.4527 9.25827C12.4527 8.65895 13.0157 8.25251 13.6056 8.16897V7.82608C13.6056 7.68915 13.7179 7.57909 13.8563 7.57909C13.9936 7.57909 14.1059 7.68915 14.1059 7.82608V8.16897C14.7615 8.26159 15.2588 8.7138 15.2588 9.25827C15.2588 9.3952 15.1465 9.50526 15.0092 9.50526C14.8709 9.50526 14.7585 9.3952 14.7585 9.25827C14.7585 8.70544 13.7502 8.43049 13.1916 8.84746C13.0436 8.95643 12.9533 9.10281 12.9533 9.25827C12.9533 9.70721 13.4269 9.79148 13.9004 9.87611C14.5798 9.9967 15.2592 10.1169 15.2592 10.9778C15.2592 11.5222 14.7618 11.9744 14.1063 12.0671Z" fill="#FF7354"/>
</svg>
