<svg width="18" height="17" viewBox="0 0 18 17" fill="none" xmlns="http://www.w3.org/2000/svg">
<path d="M17.0407 15.0627C15.8508 13.0056 14.0172 11.5306 11.8774 10.8314C12.9358 10.2013 13.7582 9.24117 14.2182 8.09845C14.6781 6.95573 14.7503 5.69361 14.4235 4.50592C14.0968 3.31823 13.3892 2.27064 12.4094 1.52402C11.4296 0.777403 10.2319 0.373047 9.00003 0.373047C7.76821 0.373047 6.57044 0.777403 5.59067 1.52402C4.6109 2.27064 3.90331 3.31823 3.57654 4.50592C3.24978 5.69361 3.32193 6.95573 3.78189 8.09845C4.24186 9.24117 5.06422 10.2013 6.12268 10.8314C3.98284 11.5299 2.14925 13.0049 0.959403 15.0627C0.91577 15.1338 0.886828 15.213 0.874285 15.2955C0.861743 15.378 0.865854 15.4622 0.886376 15.5431C0.906897 15.624 0.943414 15.7 0.993772 15.7665C1.04413 15.8331 1.10731 15.8889 1.17958 15.9306C1.25185 15.9724 1.33175 15.9992 1.41457 16.0096C1.49738 16.0199 1.58143 16.0136 1.66176 15.991C1.74209 15.9683 1.81708 15.9298 1.88228 15.8777C1.94749 15.8256 2.00161 15.761 2.04143 15.6877C3.51331 13.1439 6.11487 11.6252 9.00003 11.6252C11.8852 11.6252 14.4867 13.1439 15.9586 15.6877C15.9985 15.761 16.0526 15.8256 16.1178 15.8777C16.183 15.9298 16.258 15.9683 16.3383 15.991C16.4186 16.0136 16.5027 16.0199 16.5855 16.0096C16.6683 15.9992 16.7482 15.9724 16.8205 15.9306C16.8927 15.8889 16.9559 15.8331 17.0063 15.7665C17.0566 15.7 17.0932 15.624 17.1137 15.5431C17.1342 15.4622 17.1383 15.378 17.1258 15.2955C17.1132 15.213 17.0843 15.1338 17.0407 15.0627ZM4.62503 6.00017C4.62503 5.13488 4.88162 4.28902 5.36235 3.56955C5.84308 2.85009 6.52636 2.28933 7.32579 1.9582C8.12522 1.62707 9.00488 1.54043 9.85355 1.70924C10.7022 1.87805 11.4818 2.29472 12.0936 2.90658C12.7055 3.51843 13.1222 4.29799 13.291 5.14665C13.4598 5.99532 13.3731 6.87499 13.042 7.67441C12.7109 8.47384 12.1501 9.15712 11.4306 9.63785C10.7112 10.1186 9.86532 10.3752 9.00003 10.3752C7.84009 10.3739 6.72801 9.9126 5.90781 9.09239C5.0876 8.27219 4.62627 7.16011 4.62503 6.00017Z" fill="white"/>
</svg>
