<svg width="20" height="21" viewBox="0 0 20 21" fill="none" xmlns="http://www.w3.org/2000/svg">
<path d="M2.5 18H4.16667M4.16667 18H15.8333M4.16667 18V8.27333M17.5 18H15.8333M15.8333 18V8.27333M4.16667 8.27333C4.13551 8.25544 4.10494 8.23654 4.075 8.21667L3.625 7.91667C3.30688 7.70448 3.0714 7.38935 2.95806 7.02414C2.84472 6.65893 2.86041 6.26585 3.0025 5.91083L3.7475 4.0475C3.87124 3.73825 4.0848 3.47318 4.36063 3.28647C4.63647 3.09976 4.96192 2.99998 5.295 3H14.705C15.0381 2.99998 15.3635 3.09976 15.6394 3.28647C15.9152 3.47318 16.1288 3.73825 16.2525 4.0475L16.9975 5.91083C17.1396 6.26585 17.1553 6.65893 17.0419 7.02414C16.9286 7.38935 16.6931 7.70448 16.375 7.91667L15.925 8.21667C15.8951 8.23654 15.8645 8.25544 15.8333 8.27333M4.16667 8.27333C4.43587 8.42882 4.7432 8.50591 5.05392 8.49589C5.36464 8.48588 5.66636 8.38916 5.925 8.21667L7.5 7.16667L9.075 8.21667C9.34888 8.3994 9.67075 8.49692 10 8.49692C10.3292 8.49692 10.6511 8.3994 10.925 8.21667L12.5 7.16667L14.075 8.21667C14.3336 8.38916 14.6354 8.48588 14.9461 8.49589C15.2568 8.50591 15.5641 8.42882 15.8333 8.27333" stroke="white" stroke-width="1.5" stroke-linecap="round" stroke-linejoin="round"/>
<path d="M11.6668 17.9998V13.8332C11.6668 13.3911 11.4912 12.9672 11.1787 12.6547C10.8661 12.3421 10.4422 12.1665 10.0002 12.1665C9.55814 12.1665 9.13421 12.3421 8.82165 12.6547C8.50909 12.9672 8.3335 13.3911 8.3335 13.8332V17.9998" stroke="white" stroke-width="1.5"/>
</svg>
