<svg width="18" height="19" viewBox="0 0 18 19" fill="none" xmlns="http://www.w3.org/2000/svg">
<path d="M8.06261 9.5C8.06261 9.74864 8.16138 9.9871 8.3372 10.1629C8.51301 10.3387 8.75147 10.4375 9.00011 10.4375C9.24875 10.4375 9.48721 10.3387 9.66302 10.1629C9.83884 9.9871 9.93761 9.74864 9.93761 9.5C9.93761 9.25136 9.83884 9.0129 9.66302 8.83709C9.48721 8.66127 9.24875 8.5625 9.00011 8.5625C8.75147 8.5625 8.51301 8.66127 8.3372 8.83709C8.16138 9.0129 8.06261 9.25136 8.06261 9.5ZM11.9689 9.5C11.9689 9.74864 12.0676 9.9871 12.2434 10.1629C12.4193 10.3387 12.6577 10.4375 12.9064 10.4375C13.155 10.4375 13.3935 10.3387 13.5693 10.1629C13.7451 9.9871 13.8439 9.74864 13.8439 9.5C13.8439 9.25136 13.7451 9.0129 13.5693 8.83709C13.3935 8.66127 13.155 8.5625 12.9064 8.5625C12.6577 8.5625 12.4193 8.66127 12.2434 8.83709C12.0676 9.0129 11.9689 9.25136 11.9689 9.5ZM4.15636 9.5C4.15636 9.74864 4.25513 9.9871 4.43095 10.1629C4.60676 10.3387 4.84522 10.4375 5.09386 10.4375C5.3425 10.4375 5.58096 10.3387 5.75677 10.1629C5.93259 9.9871 6.03136 9.74864 6.03136 9.5C6.03136 9.25136 5.93259 9.0129 5.75677 8.83709C5.58096 8.66127 5.3425 8.5625 5.09386 8.5625C4.84522 8.5625 4.60676 8.66127 4.43095 8.83709C4.25513 9.0129 4.15636 9.25136 4.15636 9.5ZM17.0704 6.10938C16.629 5.06055 15.9962 4.11914 15.1896 3.31055C14.3886 2.50663 13.4377 1.86762 12.3907 1.42969C11.3165 0.978516 10.1759 0.75 9.00011 0.75H8.96105C7.77745 0.755859 6.63097 0.990234 5.55285 1.45117C4.51487 1.8936 3.57289 2.53374 2.77941 3.33594C1.98058 4.14258 1.35363 5.08008 0.920033 6.125C0.470814 7.20703 0.244251 8.35742 0.250111 9.54102C0.256738 10.8974 0.577634 12.2338 1.18761 13.4453V16.4141C1.18761 16.6523 1.28227 16.8809 1.45076 17.0494C1.61925 17.2178 1.84777 17.3125 2.08605 17.3125H5.05675C6.26826 17.9225 7.60466 18.2434 8.96105 18.25H9.00206C10.172 18.25 11.3068 18.0234 12.3751 17.5801C13.4168 17.1474 14.3641 16.5158 15.1642 15.7207C15.9708 14.9219 16.6056 13.9883 17.0489 12.9473C17.5099 11.8691 17.7443 10.7227 17.7501 9.53906C17.756 8.34961 17.5255 7.19531 17.0704 6.10938ZM14.1193 14.6641C12.7501 16.0195 10.9337 16.7656 9.00011 16.7656H8.96691C7.78917 16.7598 6.61925 16.4668 5.58605 15.916L5.42199 15.8281H2.67199V13.0781L2.5841 12.9141C2.03331 11.8809 1.74035 10.7109 1.73449 9.5332C1.72667 7.58594 2.47081 5.75781 3.83605 4.38086C5.19933 3.00391 7.0216 2.24219 8.96886 2.23438H9.00206C9.97863 2.23438 10.9259 2.42383 11.8185 2.79883C12.6896 3.16406 13.4708 3.68945 14.1427 4.36133C14.8126 5.03125 15.34 5.81445 15.7052 6.68555C16.0841 7.58789 16.2735 8.54492 16.2696 9.5332C16.2579 11.4785 15.4943 13.3008 14.1193 14.6641Z" fill="white"/>
</svg>
